<svg width="27" height="28" viewBox="0 0 27 28" fill="none" xmlns="http://www.w3.org/2000/svg">
<path d="M8.33331 27.3334C7.59998 27.3334 6.97242 27.0725 6.45065 26.5507C5.92798 26.028 5.66665 25.4 5.66665 24.6667C5.66665 23.9334 5.92798 23.3054 6.45065 22.7827C6.97242 22.2609 7.59998 22 8.33331 22C9.06665 22 9.6942 22.2609 10.216 22.7827C10.7386 23.3054 11 23.9334 11 24.6667C11 25.4 10.7386 26.028 10.216 26.5507C9.6942 27.0725 9.06665 27.3334 8.33331 27.3334ZM21.6666 27.3334C20.9333 27.3334 20.3058 27.0725 19.784 26.5507C19.2613 26.028 19 25.4 19 24.6667C19 23.9334 19.2613 23.3054 19.784 22.7827C20.3058 22.2609 20.9333 22 21.6666 22C22.4 22 23.028 22.2609 23.5506 22.7827C24.0724 23.3054 24.3333 23.9334 24.3333 24.6667C24.3333 25.4 24.0724 26.028 23.5506 26.5507C23.028 27.0725 22.4 27.3334 21.6666 27.3334ZM8.33331 20.6667C7.33331 20.6667 6.57776 20.2276 6.06665 19.3494C5.55554 18.472 5.53331 17.6 5.99998 16.7334L7.79998 13.4667L2.99998 3.33335H1.63331C1.25554 3.33335 0.944424 3.20535 0.69998 2.94935C0.455535 2.69424 0.333313 2.3778 0.333313 2.00002C0.333313 1.62224 0.461313 1.30535 0.717313 1.04935C0.972424 0.794242 1.28887 0.666687 1.66665 0.666687H3.83331C4.07776 0.666687 4.31109 0.733354 4.53331 0.866687C4.75554 1.00002 4.9222 1.18891 5.03331 1.43335L5.93331 3.33335H25.6C26.2 3.33335 26.6111 3.55558 26.8333 4.00002C27.0555 4.44446 27.0444 4.91113 26.8 5.40002L22.0666 13.9334C21.8222 14.3778 21.5 14.7222 21.1 14.9667C20.7 15.2111 20.2444 15.3334 19.7333 15.3334H9.79998L8.33331 18H23.0333C23.4111 18 23.7222 18.1276 23.9666 18.3827C24.2111 18.6387 24.3333 18.9556 24.3333 19.3334C24.3333 19.7111 24.2053 20.0276 23.9493 20.2827C23.6942 20.5387 23.3778 20.6667 23 20.6667H8.33331Z" fill="#006dc6"/>
</svg>
